Coordinates
version=1
nRows=8
nColumns=40
inDegrees=yes

Units are S.I. units (second, meters, Newtons, ...)
Angles are in degrees.

endheader
time	pelvis_tilt	pelvis_list	pelvis_rotation	pelvis_tx	pelvis_ty	pelvis_tz	hip_flexion_r	hip_adduction_r	hip_rotation_r	knee_angle_r	knee_angle_r_beta	ankle_angle_r	subtalar_angle_r	mtp_angle_r	hip_flexion_l	hip_adduction_l	hip_rotation_l	knee_angle_l	knee_angle_l_beta	ankle_angle_l	subtalar_angle_l	mtp_angle_l	lumbar_extension	lumbar_bending	lumbar_rotation	arm_flex_r	arm_add_r	arm_rot_r	elbow_flex_r	pro_sup_r	wrist_flex_r	wrist_dev_r	arm_flex_l	arm_add_l	arm_rot_l	elbow_flex_l	pro_sup_l	wrist_flex_l	wrist_dev_l
     48.55500000	     -5.53282026	     -4.27086510	     -2.88538244	      0.96721604	      0.92155590	      0.43132276	     28.13264906	     -0.73321593	    -14.01213633	     12.15771290	     12.15771290	      1.12359467	      8.27177818	      8.65232493	      2.72698647	     -3.79652615	     -9.18961206	     15.80057073	     15.80057073	     19.59027682	     -6.91989159	     -2.40119197	    -10.39981248	      6.19394213	      0.51903547	    -15.34395117	    -13.36616717	     -9.63345145	     24.69673605	     46.77385467	      0.00000000	      0.00000000	     22.94245253	    -17.51394244	     -9.20329940	     82.08857456	     47.58583755	      0.00000000	      0.00000000
     48.56821429	     -5.58914043	     -4.21827327	     -2.94297683	      0.96916048	      0.92028991	      0.43283757	     27.76937040	     -0.56514315	    -14.31298519	     12.08953849	     12.08953849	      0.93595262	      8.50430346	      8.36244470	      2.04268874	     -3.79959461	     -9.25694101	     15.58284569	     15.58284569	     19.91138685	     -6.75565633	     -2.48086694	    -10.13304545	      6.20694826	      0.48744476	    -16.00083669	    -13.26666245	     -9.74776684	     24.59638531	     46.77942482	      0.00000000	      0.00000000	     22.68994983	    -17.41615817	     -9.15466470	     82.31578836	     47.59153175	      0.00000000	      0.00000000
     48.58142857	     -5.53767318	     -4.14800619	     -2.96492447	      0.97133967	      0.91915168	      0.43448332	     27.18834112	     -0.42186316	    -14.48540606	     12.08386223	     12.08386223	     -0.39813072	      8.42656510	      4.41564020	      1.28567798	     -3.84716822	     -9.55648903	     15.48443714	     15.48443714	     20.30600456	     -6.22481745	     -2.49809096	    -10.00874595	      6.15541202	      0.46901178	    -16.65175052	    -13.05274820	    -10.58801562	     25.11836587	     46.80480907	      0.00000000	      0.00000000	     22.33037446	    -17.30919344	     -8.97392024	     82.83700950	     47.64055562	      0.00000000	      0.00000000
     48.59464286	     -5.58222770	     -4.22465014	     -2.93957857	      0.97352916	      0.91817336	      0.43623702	     26.80838221	     -0.19369315	    -14.48172677	     12.58836898	     12.58836898	     -0.36495081	      8.20193604	      4.18052018	      0.68131117	     -4.02952245	     -9.46460353	     15.45739055	     15.45739055	     20.58354985	     -6.21600229	     -2.55991811	     -9.73246545	      6.30259722	      0.41139102	    -16.87961569	    -12.87486529	    -10.58987054	     25.01035773	     46.80638319	      0.00000000	      0.00000000	     21.85708585	    -17.06450331	     -8.88642092	     82.69946496	     47.63157940	      0.00000000	      0.00000000
     48.60785714	     -5.57614155	     -4.16192016	     -2.97834898	      0.97580054	      0.91728694	      0.43823174	     26.67349998	     -0.09486365	    -13.90960729	     13.70903217	     13.70903217	     -0.52704376	      7.05104194	      2.57859601	     -0.01944115	     -4.09908207	     -9.66998715	     15.37526445	     15.37526445	     20.82867623	     -5.84554941	     -2.54040900	     -9.52719512	      6.25964035	      0.44787207	    -16.85157445	    -12.71705315	    -10.65175999	     24.81277605	     46.81663075	      0.00000000	      0.00000000	     21.42922265	    -16.75770228	     -8.87242985	     82.46370624	     47.63723283	      0.00000000	      0.00000000
     48.62107143	     -5.54945843	     -4.21726157	     -2.97871490	      0.97803050	      0.91668115	      0.44032096	     26.43475876	      0.11748871	    -13.42446196	     14.70945505	     14.70945505	     -0.65211420	      6.02055197	      1.28029071	     -0.57955074	     -4.33388771	     -9.78265659	     15.58821436	     15.58821436	     21.07165312	     -5.61578491	     -2.56518097	     -9.37937633	      6.33059706	      0.39371599	    -16.60851184	    -12.54096855	    -10.66756236	     24.72084137	     46.82136466	      0.00000000	      0.00000000	     20.83276882	    -16.48120025	     -8.83229079	     82.10701149	     47.63472174	      0.00000000	      0.00000000
     48.63428571	     -5.48813243	     -4.35041901	     -2.93747367	      0.98042766	      0.91627625	      0.44259589	     25.99431747	      0.49577034	    -12.65336460	     15.32292933	     15.32292933	     -1.43919100	      4.42593301	     -2.27187545	     -1.06085481	     -4.74599282	    -10.11820046	     16.07387170	     16.07387170	     21.47800261	     -5.01877533	     -2.31388807	     -9.24429212	      6.52464465	      0.26472864	    -16.00283702	    -12.40112328	    -10.67257445	     24.20609590	     46.83741074	      0.00000000	      0.00000000	     20.06769944	    -16.10895365	     -8.98514765	     81.67856038	     47.68365808	      0.00000000	      0.00000000
     48.64750000	     -5.44513311	     -4.49696468	     -2.89129068	      0.98275866	      0.91634532	      0.44491018	     25.55035107	      0.77815403	    -12.43558784	     15.95147300	     15.95147300	     -0.94502184	      4.16714091	     -2.54230262	     -1.57135811	     -5.09893381	    -10.08939377	     16.37753539	     16.37753539	     21.43688735	     -5.13001856	     -2.31072792	     -9.14651224	      6.65622567	      0.36781545	    -15.51099844	    -12.13537191	    -10.63011733	     24.38824867	     46.82943017	      0.00000000	      0.00000000	     19.24392205	    -15.59343606	     -8.76153153	     81.33980976	     47.65868333	      0.00000000	      0.00000000
